<svg xmlns="http://www.w3.org/2000/svg" viewBox="0 0 596.76 153.494">
  <defs>
    <linearGradient id="a" x2="1" y1=".473" y2=".5" gradientUnits="objectBoundingBox">
      <stop offset="0" stop-color="#006eff"/>
      <stop offset="1" stop-color="#06172d"/>
    </linearGradient>
  </defs>
  <circle cx="24" cy="24" r="24" fill="rgba(0,116,255,0.1)" data-name="Ellipse 1" transform="translate(34.365)"/>
  <circle cx="24" cy="24" r="24" fill="rgba(0,116,255,0.1)" data-name="Ellipse 3" transform="translate(94.365 39)"/>
  <circle cx="24" cy="24" r="24" fill="rgba(0,116,255,0.1)" data-name="Ellipse 4" transform="translate(18.365 90)"/>
  <circle cx="13.5" cy="13.5" r="13.5" fill="rgba(0,116,255,0.1)" data-name="Ellipse 5" transform="translate(179.365 18)"/>
  <circle cx="13.5" cy="13.5" r="13.5" fill="rgba(0,116,255,0.1)" data-name="Ellipse 7" transform="translate(149.365 119)"/>
  <circle cx="6.5" cy="6.5" r="6.5" fill="rgba(0,116,255,0.1)" data-name="Ellipse 8" transform="translate(242.365 108)"/>
  <circle cx="13.5" cy="13.5" r="13.5" fill="rgba(0,116,255,0.1)" data-name="Ellipse 9" transform="translate(292.365 77)"/>
  <circle cx="6.5" cy="6.5" r="6.5" fill="rgba(0,116,255,0.1)" data-name="Ellipse 11" transform="translate(176.365 82)"/>
  <path fill="url(#a)" d="M30.779 0a14.224 14.224 0 0 0 10.16-4.084 14.179 14.179 0 0 0 4.283-10.758v-47.912h50.9a9.59 9.59 0 0 0 7.67-3.237 11.574 11.574 0 0 0 2.789-7.819 11.5 11.5 0 0 0-2.839-7.77 9.558 9.558 0 0 0-7.62-3.287h-50.9v-36.258h53.79a9.433 9.433 0 0 0 7.62-3.387 11.882 11.882 0 0 0 2.839-7.869 11.882 11.882 0 0 0-2.839-7.869 9.433 9.433 0 0 0-7.62-3.387H31.676a15.168 15.168 0 0 0-10.658 4.037 13.857 13.857 0 0 0-4.383 10.708v114.05a14.448 14.448 0 0 0 4.134 10.758A13.719 13.719 0 0 0 30.779 0Zm134.274 1.2q23.607 0 32.572-17.133v3.686q0 5.877 3.486 9.064A12.631 12.631 0 0 0 209.977 0a12.9 12.9 0 0 0 9.064-3.287q3.586-3.287 3.586-9.264v-73.511q0-6.574-3.486-10.21a11.872 11.872 0 0 0-8.965-3.636 12.034 12.034 0 0 0-9.015 3.636q-3.536 3.636-3.536 10.21v41.836q0 12.65-7.321 20.52t-17.382 7.869a17.951 17.951 0 0 1-13.447-5.429Q154.2-26.7 154.2-36.955v-49.107q0-6.574-3.486-10.21a11.635 11.635 0 0 0-8.766-3.636 12.32 12.32 0 0 0-9.164 3.636q-3.586 3.636-3.586 10.21v49.107a45.966 45.966 0 0 0 2.938 16.934 30.9 30.9 0 0 0 8.019 12 35.5 35.5 0 0 0 11.405 6.873A38.576 38.576 0 0 0 165.053 1.2Zm84.07-11.256q15.838 11.55 39.047 11.55 17.93 0 29.136-8.068t11.206-23.309q0-12.152-7.421-19.025t-23.458-10.858l-15.34-3.885q-8.268-1.893-11.206-4.134t-2.938-6.923q0-5.279 5.379-7.819a30.384 30.384 0 0 1 13.049-2.54q2.291 0 4.532.2a43.793 43.793 0 0 1 4.532.647q2.291.448 3.935.8a39.405 39.405 0 0 1 3.935 1.1q2.291.747 3.138 1t2.938 1.046q2.092.8 2.191.8a11.563 11.563 0 0 0 3.885.8 6.989 6.989 0 0 0 5.429-2.241 7.773 7.773 0 0 0 2.042-5.429q0-5.379-5.379-7.969a74.066 74.066 0 0 0-32.672-7.471q-17.83 0-28.787 7.321t-10.958 20.951a29.78 29.78 0 0 0 1.494 9.911 22.47 22.47 0 0 0 3.885 7.072 22.422 22.422 0 0 0 6.873 5.18 63.311 63.311 0 0 0 8.865 3.835q4.383 1.494 11.455 3.387l15.539 3.984q13.846 3.387 13.846 11.854a10.243 10.243 0 0 1-3.237 7.819 17.356 17.356 0 0 1-7.77 4.184 42.2 42.2 0 0 1-10.31 1.146 43.467 43.467 0 0 1-11.754-1.644 54.239 54.239 0 0 1-8.517-2.938q-2.64-1.295-7.022-3.785A10.667 10.667 0 0 0 253.506-25a7.362 7.362 0 0 0-5.728 2.49 8.372 8.372 0 0 0-2.241 5.777 7.9 7.9 0 0 0 3.586 6.672ZM361.682 0a11.951 11.951 0 0 0 9.018-3.686q3.536-3.686 3.536-10.26v-71.917q0-6.674-3.536-10.359a11.951 11.951 0 0 0-9.015-3.686 11.791 11.791 0 0 0-8.965 3.686q-3.486 3.686-3.486 10.359v71.918q0 6.674 3.486 10.31A11.872 11.872 0 0 0 361.682 0Zm0-119.83a14.625 14.625 0 0 0 10.509-3.835 13.182 13.182 0 0 0 4.034-10.011 13.1 13.1 0 0 0-3.984-9.961 14.559 14.559 0 0 0-10.459-3.785q-6.574 0-10.608 3.785a13.022 13.022 0 0 0-4.034 9.961 13.182 13.182 0 0 0 4.034 10.011 14.625 14.625 0 0 0 10.508 3.835Zm84.867 103.992q-12.85 0-20.021-8.965t-7.172-25.1q0-16.336 7.122-25.351t20.071-9.015q12.949 0 20.121 9.064t7.172 25.3q0 16.137-7.172 25.1t-20.121 8.967Zm0 17.033a61.46 61.46 0 0 0 19.324-2.889 46.842 46.842 0 0 0 14.792-7.72 45.314 45.314 0 0 0 10.16-11.455 51 51 0 0 0 6.076-13.9 58.419 58.419 0 0 0 1.943-15.131 60.557 60.557 0 0 0-2.044-15.842 48.565 48.565 0 0 0-6.325-14.095 46.5 46.5 0 0 0-10.359-11.256 46.7 46.7 0 0 0-14.692-7.471 62.032 62.032 0 0 0-18.876-2.739 61.637 61.637 0 0 0-19.175 2.839 45.6 45.6 0 0 0-14.742 7.72 47.361 47.361 0 0 0-10.21 11.455 49.071 49.071 0 0 0-6.126 14 60.527 60.527 0 0 0-1.942 15.39 56.367 56.367 0 0 0 3.188 19.025 52.077 52.077 0 0 0 9.313 16.236 42.2 42.2 0 0 0 16.386 11.55A60.025 60.025 0 0 0 446.549 1.2ZM532.412 0a12.034 12.034 0 0 0 9.015-3.636q3.536-3.636 3.536-10.11v-42.135q0-12.65 7.271-20.52t17.232-7.869a18.236 18.236 0 0 1 13.6 5.429q5.329 5.429 5.329 15.688v49.406q0 6.475 3.486 10.11A11.635 11.635 0 0 0 600.645 0a12.32 12.32 0 0 0 9.164-3.636q3.586-3.636 3.586-10.11v-49.307a46.973 46.973 0 0 0-2.889-17.033 31.008 31.008 0 0 0-7.869-12 34.365 34.365 0 0 0-11.306-6.873 38.577 38.577 0 0 0-13.5-2.341q-11.654 0-20.071 4.383a29.37 29.37 0 0 0-12.8 12.85v-3.486q0-5.877-3.486-9.114a12.517 12.517 0 0 0-8.865-3.237 12.9 12.9 0 0 0-9.064 3.287q-3.586 3.287-3.586 9.264v73.611q0 6.475 3.486 10.11A11.872 11.872 0 0 0 532.412 0Z" data-name="Path 1" transform="translate(-16.635 152)"/>
</svg>
